<?xml version="1.0" encoding="UTF-8" standalone="no"?><svg xmlns="http://www.w3.org/2000/svg" xmlns:xlink="http://www.w3.org/1999/xlink" fill="#ffffff" height="500" preserveAspectRatio="xMidYMid meet" version="1" viewBox="0.0 0.0 500.0 500.0" width="500" zoomAndPan="magnify"><g id="change1_1"><path d="M 402.722656 56.402344 C 402.859375 56.507812 402.992188 56.617188 403.128906 56.71875 C 403.660156 57.144531 404.195312 57.566406 404.730469 58.003906 C 404.742188 58.011719 404.75 58.019531 404.761719 58.027344 L 405.253906 58.421875 C 405.511719 58.628906 405.757812 58.839844 406.011719 59.042969 L 406.054688 59.078125 C 406.328125 59.304688 406.605469 59.53125 406.878906 59.761719 C 407.238281 60.050781 407.601562 60.347656 407.960938 60.648438 C 412.5 64.441406 416.96875 68.453125 421.242188 72.589844 C 421.6875 73.011719 422.269531 73.570312 422.839844 74.140625 C 423.046875 74.351562 423.261719 74.554688 423.476562 74.761719 C 423.519531 74.8125 423.5625 74.855469 423.613281 74.898438 L 423.613281 76.386719 L 425.101562 76.386719 C 425.144531 76.4375 425.1875 76.480469 425.238281 76.523438 C 425.445312 76.730469 425.648438 76.945312 425.859375 77.15625 C 426.378906 77.6875 426.894531 78.21875 427.417969 78.757812 C 431.546875 83.039062 435.5625 87.507812 439.351562 92.039062 C 439.652344 92.402344 439.949219 92.757812 440.242188 93.121094 L 423.613281 93.121094 L 423.613281 94.746094 L 441.570312 94.746094 C 441.605469 94.785156 441.640625 94.828125 441.671875 94.867188 L 441.972656 95.238281 L 442 95.273438 C 442.429688 95.804688 442.855469 96.339844 443.277344 96.871094 C 443.382812 97.007812 443.492188 97.140625 443.597656 97.277344 C 447.226562 101.859375 450.722656 106.628906 454.019531 111.480469 C 454.394531 112.019531 454.757812 112.5625 455.117188 113.105469 C 455.179688 113.195312 455.238281 113.289062 455.300781 113.375 C 455.65625 113.90625 456.007812 114.445312 456.363281 114.988281 C 456.730469 115.546875 457.101562 116.113281 457.460938 116.679688 C 457.96875 117.457031 458.488281 118.28125 459.066406 119.199219 C 459.492188 119.878906 459.914062 120.566406 460.332031 121.25 L 460.332031 129.847656 L 443.597656 129.847656 L 443.597656 111.480469 L 406.878906 111.480469 L 406.878906 74.761719 L 368.535156 74.761719 L 368.535156 94.746094 L 386.894531 94.746094 L 386.894531 129.847656 L 370.152344 129.847656 L 370.152344 111.480469 L 351.792969 111.480469 L 351.792969 58.027344 L 388.519531 58.027344 L 388.519531 45.980469 C 393.363281 49.273438 398.136719 52.773438 402.722656 56.402344 Z M 76.386719 149.832031 L 76.386719 131.464844 L 111.480469 131.464844 L 111.480469 149.828125 L 131.46875 149.828125 L 131.46875 148.203125 L 113.105469 148.203125 L 113.105469 131.464844 L 168.191406 131.464844 L 168.191406 129.84375 L 149.832031 129.84375 L 149.832031 113.105469 L 184.925781 113.105469 L 184.925781 148.203125 L 148.207031 148.203125 L 148.207031 166.5625 L 111.480469 166.5625 L 111.480469 184.921875 L 94.746094 184.921875 L 94.746094 148.203125 L 93.121094 148.203125 L 93.121094 186.546875 L 113.105469 186.546875 L 113.105469 168.1875 L 149.832031 168.1875 L 149.832031 149.828125 L 186.550781 149.828125 L 186.550781 111.480469 L 148.207031 111.480469 L 148.207031 129.84375 L 76.386719 129.84375 L 76.386719 74.90625 C 76.433594 74.855469 76.484375 74.804688 76.535156 74.761719 C 76.742188 74.546875 76.957031 74.34375 77.164062 74.136719 C 77.730469 73.578125 78.3125 73.011719 78.757812 72.582031 C 83.042969 68.449219 87.511719 64.433594 92.046875 60.644531 C 92.425781 60.332031 92.78125 60.035156 93.121094 59.753906 L 93.121094 113.105469 L 94.746094 113.105469 L 94.746094 58.425781 C 94.914062 58.289062 95.082031 58.160156 95.246094 58.027344 L 113.105469 58.027344 L 113.105469 56.402344 L 97.277344 56.402344 C 101.886719 52.761719 106.65625 49.261719 111.480469 45.984375 C 112.019531 45.617188 112.5625 45.25 113.105469 44.890625 C 113.199219 44.828125 113.285156 44.765625 113.382812 44.703125 L 113.386719 44.699219 L 113.394531 44.695312 C 113.863281 44.378906 114.363281 44.046875 114.988281 43.636719 C 115.519531 43.285156 116.070312 42.925781 116.679688 42.535156 C 117.597656 41.949219 118.507812 41.371094 119.199219 40.933594 C 119.878906 40.507812 120.558594 40.085938 121.25 39.664062 L 129.847656 39.664062 L 129.847656 74.757812 L 111.480469 74.757812 L 111.480469 113.105469 L 131.46875 113.105469 L 131.46875 94.742188 L 149.832031 94.742188 L 149.832031 76.382812 L 166.566406 76.382812 L 166.566406 94.742188 L 203.285156 94.742188 L 203.285156 113.105469 L 204.910156 113.105469 L 204.910156 93.121094 L 168.191406 93.121094 L 168.191406 74.757812 L 149.832031 74.757812 L 149.832031 56.398438 L 148.207031 56.398438 L 148.207031 93.121094 L 129.847656 93.121094 L 129.847656 111.480469 L 113.105469 111.480469 L 113.105469 76.382812 L 129.847656 76.382812 L 129.847656 76.386719 L 131.464844 76.386719 L 131.464844 76.382812 L 131.46875 76.382812 L 131.46875 74.757812 L 131.464844 74.757812 L 131.464844 58.023438 L 131.46875 58.023438 L 131.46875 56.398438 L 131.464844 56.398438 L 131.464844 38.042969 L 123.929688 38.042969 C 125.882812 36.878906 127.859375 35.738281 129.847656 34.628906 C 130.386719 34.328125 130.929688 34.03125 131.464844 33.734375 C 131.476562 33.726562 131.480469 33.722656 131.492188 33.71875 C 132.007812 33.433594 132.546875 33.136719 133.0625 32.859375 L 133.078125 32.855469 L 133.097656 32.84375 C 138.003906 30.195312 143.085938 27.675781 148.207031 25.351562 C 148.667969 25.136719 149.132812 24.929688 149.59375 24.722656 L 149.832031 24.617188 L 149.851562 24.605469 C 149.996094 24.546875 150.140625 24.480469 150.265625 24.425781 C 150.472656 24.332031 150.6875 24.238281 150.894531 24.144531 L 151.203125 24.007812 C 152.113281 23.613281 153.035156 23.210938 153.953125 22.828125 C 155.175781 22.3125 156.410156 21.800781 157.644531 21.300781 C 159.019531 20.746094 160.390625 20.203125 161.769531 19.675781 C 163.367188 19.066406 164.96875 18.46875 166.566406 17.898438 L 166.566406 38.042969 L 148.207031 38.042969 L 148.207031 39.664062 L 166.566406 39.664062 L 166.566406 58.027344 L 168.191406 58.027344 L 168.191406 58.023438 L 221.652344 58.023438 L 221.652344 74.757812 L 184.925781 74.757812 L 184.925781 76.382812 L 221.652344 76.382812 L 221.652344 94.742188 L 223.269531 94.742188 L 223.269531 56.398438 L 168.191406 56.398438 L 168.191406 17.316406 C 168.5625 17.183594 168.9375 17.054688 169.308594 16.925781 C 174.4375 15.15625 179.683594 13.53125 184.925781 12.101562 C 185.226562 12.019531 185.523438 11.9375 185.824219 11.855469 L 186.550781 11.65625 C 186.835938 11.582031 187.121094 11.511719 187.417969 11.433594 C 192.648438 10.066406 197.984375 8.859375 203.285156 7.84375 C 203.5 7.800781 203.714844 7.753906 203.929688 7.71875 C 204.253906 7.65625 204.582031 7.597656 204.910156 7.535156 C 205.105469 7.496094 205.304688 7.460938 205.503906 7.425781 L 205.515625 7.425781 L 205.523438 7.421875 C 207.683594 7.027344 209.890625 6.65625 212.078125 6.324219 C 215.214844 5.835938 218.429688 5.402344 221.648438 5.039062 C 221.652344 5.039062 221.652344 5.039062 221.652344 5.039062 L 221.652344 19.675781 L 184.925781 19.675781 L 184.925781 39.664062 L 240.011719 39.664062 L 240.011719 58.023438 L 241.636719 58.023438 L 241.636719 39.664062 L 276.730469 39.664062 L 276.730469 76.382812 L 295.089844 76.382812 L 295.089844 93.121094 L 276.730469 93.121094 L 276.730469 94.742188 L 296.714844 94.742188 L 296.714844 74.757812 L 278.355469 74.757812 L 278.355469 39.664062 L 296.714844 39.664062 L 296.714844 38.039062 L 278.355469 38.039062 L 278.355469 19.675781 L 276.730469 19.675781 L 276.730469 38.039062 L 241.636719 38.039062 L 241.636719 19.675781 L 240.011719 19.675781 L 240.011719 38.039062 L 186.550781 38.039062 L 186.550781 21.300781 L 223.269531 21.300781 L 223.269531 4.859375 C 223.378906 4.839844 223.496094 4.828125 223.617188 4.820312 L 223.648438 4.8125 L 223.675781 4.8125 C 223.96875 4.773438 224.257812 4.746094 224.558594 4.71875 C 229.691406 4.195312 234.890625 3.820312 240.011719 3.621094 C 240.054688 3.621094 240.097656 3.617188 240.140625 3.617188 L 240.160156 3.617188 C 240.648438 3.59375 241.140625 3.578125 241.636719 3.5625 C 241.675781 3.558594 241.707031 3.558594 241.746094 3.558594 C 244.445312 3.46875 247.222656 3.421875 250 3.421875 C 252.78125 3.421875 255.554688 3.46875 258.261719 3.558594 C 258.292969 3.558594 258.332031 3.558594 258.363281 3.5625 C 258.363281 3.5625 258.363281 3.5625 258.367188 3.5625 L 258.367188 21.300781 L 259.996094 21.300781 L 259.996094 3.621094 C 265.109375 3.820312 270.308594 4.195312 275.457031 4.71875 C 275.746094 4.746094 276.03125 4.773438 276.324219 4.8125 L 276.355469 4.8125 L 276.382812 4.820312 C 276.503906 4.828125 276.621094 4.839844 276.730469 4.851562 C 277.191406 4.902344 277.582031 4.945312 277.949219 4.988281 L 277.960938 4.988281 L 277.976562 4.996094 C 278.101562 5.011719 278.226562 5.023438 278.355469 5.039062 C 281.574219 5.402344 284.792969 5.835938 287.933594 6.324219 C 290.085938 6.652344 292.285156 7.019531 294.476562 7.421875 C 294.679688 7.460938 294.886719 7.496094 295.089844 7.535156 L 295.089844 21.300781 L 313.449219 21.300781 L 313.449219 56.398438 L 295.089844 56.398438 L 295.089844 58.023438 L 313.449219 58.023438 L 313.449219 58.027344 L 315.074219 58.027344 L 315.074219 58.023438 L 331.808594 58.023438 L 331.808594 74.757812 L 313.449219 74.757812 L 313.449219 76.382812 L 331.808594 76.382812 L 331.808594 149.828125 L 351.796875 149.828125 L 351.796875 129.84375 L 350.171875 129.84375 L 350.171875 148.203125 L 333.433594 148.203125 L 333.433594 56.398438 L 315.074219 56.398438 L 315.074219 21.300781 L 333.433594 21.300781 L 333.433594 19.675781 L 296.714844 19.675781 L 296.714844 7.84375 C 302.007812 8.851562 307.339844 10.0625 312.59375 11.433594 C 312.878906 11.511719 313.164062 11.582031 313.449219 11.65625 C 313.558594 11.683594 313.667969 11.71875 313.777344 11.746094 L 314.191406 11.855469 C 314.488281 11.933594 314.777344 12.015625 315.074219 12.097656 C 320.300781 13.519531 325.550781 15.144531 330.683594 16.921875 C 331.0625 17.054688 331.4375 17.183594 331.808594 17.316406 C 331.972656 17.371094 332.132812 17.425781 332.292969 17.488281 C 332.671875 17.625 333.054688 17.757812 333.433594 17.894531 C 335.03125 18.46875 336.632812 19.0625 338.230469 19.675781 C 339.609375 20.203125 340.984375 20.746094 342.351562 21.300781 C 343.59375 21.800781 344.824219 22.3125 346.054688 22.835938 C 346.964844 23.210938 347.886719 23.605469 348.789062 24.007812 L 349.097656 24.140625 C 349.308594 24.234375 349.519531 24.332031 349.71875 24.421875 C 349.859375 24.480469 350 24.539062 350.136719 24.601562 L 350.167969 24.617188 L 350.398438 24.722656 C 350.867188 24.929688 351.332031 25.136719 351.792969 25.351562 C 356.910156 27.667969 361.992188 30.1875 366.921875 32.851562 C 367.414062 33.113281 367.929688 33.394531 368.507812 33.710938 C 368.515625 33.71875 368.523438 33.722656 368.535156 33.726562 C 369.078125 34.023438 369.613281 34.328125 370.152344 34.621094 C 372.140625 35.738281 374.117188 36.878906 376.0625 38.042969 L 368.535156 38.042969 L 368.535156 39.664062 L 378.75 39.664062 C 379.441406 40.089844 380.121094 40.511719 380.800781 40.941406 C 381.667969 41.476562 382.515625 42.015625 383.324219 42.542969 C 383.925781 42.925781 384.480469 43.285156 385.023438 43.640625 C 385.554688 43.992188 386.082031 44.339844 386.617188 44.699219 C 386.714844 44.761719 386.800781 44.820312 386.894531 44.886719 L 386.894531 56.402344 L 351.792969 56.402344 L 351.792969 39.664062 L 351.796875 39.664062 L 351.796875 38.039062 L 331.808594 38.039062 L 331.808594 39.664062 L 350.167969 39.664062 L 350.167969 113.105469 L 368.535156 113.105469 L 368.535156 131.464844 L 386.894531 131.464844 L 386.894531 186.550781 L 388.519531 186.550781 L 388.519531 186.546875 L 406.878906 186.546875 L 406.878906 184.921875 L 388.519531 184.921875 L 388.519531 131.464844 L 405.253906 131.464844 L 405.253906 168.1875 L 423.613281 168.1875 L 423.613281 223.265625 L 443.597656 223.265625 L 443.597656 184.921875 L 441.972656 184.921875 L 441.972656 221.644531 L 425.238281 221.644531 L 425.238281 166.5625 L 406.878906 166.5625 L 406.878906 131.464844 L 425.238281 131.464844 L 425.238281 129.84375 L 423.613281 129.84375 L 423.613281 129.847656 L 406.878906 129.847656 L 406.878906 129.84375 L 405.253906 129.84375 L 405.253906 129.847656 L 388.519531 129.847656 L 388.519531 93.121094 L 370.152344 93.121094 L 370.152344 76.386719 L 405.253906 76.386719 L 405.253906 113.105469 L 441.972656 113.105469 L 441.972656 148.203125 L 423.613281 148.203125 L 423.613281 149.828125 L 441.972656 149.828125 L 441.972656 168.191406 L 443.597656 168.191406 L 443.597656 168.1875 L 460.335938 168.1875 L 460.335938 204.90625 L 478.699219 204.90625 L 478.699219 221.644531 L 460.335938 221.644531 L 460.335938 223.265625 L 480.324219 223.265625 L 480.324219 203.285156 L 461.960938 203.285156 L 461.960938 166.5625 L 443.597656 166.5625 L 443.597656 131.464844 L 461.957031 131.464844 L 461.957031 123.929688 C 463.128906 125.890625 464.269531 127.863281 465.371094 129.847656 C 465.675781 130.382812 465.976562 130.929688 466.269531 131.464844 C 466.277344 131.472656 466.277344 131.480469 466.28125 131.488281 L 466.289062 131.503906 C 466.574219 132.027344 466.871094 132.558594 467.15625 133.089844 C 469.8125 138.007812 472.332031 143.089844 474.644531 148.203125 L 460.335938 148.203125 L 460.335938 149.828125 L 475.382812 149.828125 L 475.382812 149.832031 L 475.394531 149.859375 C 475.453125 149.996094 475.519531 150.136719 475.582031 150.277344 C 475.675781 150.484375 475.765625 150.691406 475.859375 150.902344 L 475.992188 151.203125 C 476.386719 152.109375 476.78125 153.03125 477.171875 153.953125 C 477.6875 155.175781 478.199219 156.410156 478.699219 157.648438 L 478.699219 168.191406 L 480.324219 168.191406 L 480.324219 161.769531 C 480.9375 163.367188 481.53125 164.96875 482.105469 166.566406 C 482.242188 166.945312 482.375 167.328125 482.511719 167.707031 C 482.574219 167.867188 482.628906 168.03125 482.683594 168.191406 C 482.8125 168.5625 482.945312 168.9375 483.078125 169.308594 C 484.855469 174.453125 486.480469 179.707031 487.898438 184.925781 L 478.699219 184.925781 L 478.699219 186.550781 L 488.34375 186.550781 C 488.414062 186.835938 488.496094 187.121094 488.566406 187.417969 C 489.921875 192.59375 491.128906 197.921875 492.15625 203.285156 C 492.199219 203.5 492.242188 203.714844 492.28125 203.925781 C 492.347656 204.25 492.410156 204.582031 492.464844 204.910156 C 492.503906 205.113281 492.539062 205.316406 492.578125 205.523438 C 492.980469 207.714844 493.347656 209.914062 493.675781 212.074219 C 494.164062 215.207031 494.597656 218.421875 494.960938 221.644531 C 494.976562 221.773438 494.988281 221.898438 495.003906 222.023438 L 495.011719 222.039062 L 495.011719 222.050781 C 495.054688 222.429688 495.097656 222.832031 495.140625 223.269531 C 495.160156 223.386719 495.171875 223.5 495.179688 223.617188 L 495.1875 223.648438 L 495.1875 223.683594 C 495.21875 223.957031 495.246094 224.226562 495.273438 224.5 L 495.277344 224.558594 C 495.808594 229.691406 496.179688 234.886719 496.378906 240.003906 L 478.699219 240.003906 L 478.699219 258.363281 L 461.960938 258.363281 L 461.960938 240.003906 L 460.335938 240.003906 L 460.335938 278.351562 L 461.960938 278.351562 L 461.960938 259.988281 L 480.324219 259.988281 L 480.324219 241.632812 L 496.4375 241.632812 C 496.4375 241.632812 496.4375 241.632812 496.4375 241.636719 C 496.441406 241.671875 496.441406 241.707031 496.441406 241.746094 C 496.53125 244.441406 496.578125 247.21875 496.578125 250 C 496.578125 252.78125 496.53125 255.558594 496.441406 258.261719 C 496.441406 258.292969 496.441406 258.332031 496.4375 258.363281 C 496.421875 258.851562 496.40625 259.347656 496.382812 259.835938 L 496.382812 259.859375 C 496.382812 259.902344 496.378906 259.945312 496.378906 259.988281 C 496.179688 265.105469 495.808594 270.304688 495.277344 275.457031 C 495.253906 275.742188 495.226562 276.03125 495.1875 276.320312 L 495.1875 276.351562 L 495.179688 276.382812 C 495.171875 276.503906 495.160156 276.617188 495.148438 276.726562 L 478.699219 276.726562 L 478.699219 295.085938 L 443.597656 295.085938 L 443.597656 276.726562 L 441.972656 276.726562 L 441.972656 313.449219 L 388.519531 313.449219 L 388.519531 295.085938 L 351.796875 295.085938 L 351.796875 276.726562 L 350.171875 276.726562 L 350.171875 313.449219 L 313.449219 313.449219 L 313.449219 331.808594 L 259.996094 331.808594 L 259.996094 315.070312 L 278.355469 315.070312 L 278.355469 296.710938 L 295.089844 296.710938 L 295.089844 315.070312 L 296.714844 315.070312 L 296.714844 295.085938 L 278.355469 295.085938 L 278.355469 276.726562 L 276.730469 276.726562 L 276.730469 313.449219 L 258.367188 313.449219 L 258.367188 350.164062 L 221.652344 350.164062 L 221.652344 386.890625 L 203.285156 386.890625 L 203.285156 423.609375 L 186.550781 423.609375 L 186.550781 405.25 L 184.925781 405.25 L 184.925781 425.234375 L 204.910156 425.234375 L 204.910156 388.515625 L 241.636719 388.515625 L 241.636719 370.152344 L 278.355469 370.152344 L 278.355469 351.789062 L 296.714844 351.789062 L 296.714844 350.164062 L 276.730469 350.164062 L 276.730469 368.53125 L 240.011719 368.53125 L 240.011719 386.890625 L 223.269531 386.890625 L 223.269531 351.789062 L 259.996094 351.789062 L 259.996094 333.429688 L 315.074219 333.429688 L 315.074219 315.070312 L 370.152344 315.070312 L 370.152344 313.449219 L 351.796875 313.449219 L 351.796875 296.710938 L 386.894531 296.710938 L 386.894531 331.808594 L 350.171875 331.808594 L 350.171875 368.53125 L 333.433594 368.53125 L 333.433594 331.808594 L 331.808594 331.808594 L 331.808594 370.152344 L 351.796875 370.152344 L 351.796875 333.429688 L 388.519531 333.429688 L 388.519531 315.070312 L 423.613281 315.070312 L 423.613281 333.429688 L 425.238281 333.429688 L 425.238281 315.070312 L 460.335938 315.070312 L 460.335938 351.789062 L 461.960938 351.789062 L 461.960938 313.449219 L 443.597656 313.449219 L 443.597656 296.710938 L 480.324219 296.710938 L 480.324219 278.351562 L 494.960938 278.351562 C 494.960938 278.351562 494.960938 278.355469 494.960938 278.355469 C 494.605469 281.503906 494.171875 284.722656 493.675781 287.925781 C 493.34375 290.117188 492.976562 292.316406 492.578125 294.476562 L 492.574219 294.484375 L 492.574219 294.496094 C 492.539062 294.695312 492.503906 294.890625 492.464844 295.089844 C 492.402344 295.417969 492.34375 295.75 492.277344 296.078125 C 492.238281 296.289062 492.195312 296.5 492.15625 296.714844 C 491.140625 302.015625 489.933594 307.351562 488.566406 312.59375 C 488.496094 312.875 488.417969 313.160156 488.34375 313.449219 L 478.699219 313.449219 L 478.699219 331.808594 L 480.324219 331.808594 L 480.324219 315.074219 L 487.902344 315.074219 C 486.476562 320.304688 484.855469 325.558594 483.078125 330.683594 C 482.945312 331.0625 482.8125 331.4375 482.683594 331.808594 C 482.628906 331.972656 482.574219 332.132812 482.511719 332.292969 C 482.375 332.671875 482.242188 333.054688 482.101562 333.433594 C 481.53125 335.03125 480.9375 336.632812 480.324219 338.230469 C 479.796875 339.609375 479.253906 340.988281 478.699219 342.351562 C 478.199219 343.59375 477.6875 344.828125 477.167969 346.050781 C 476.789062 346.964844 476.386719 347.886719 475.992188 348.789062 L 475.859375 349.097656 C 475.765625 349.308594 475.675781 349.515625 475.582031 349.722656 C 475.519531 349.863281 475.453125 350.003906 475.394531 350.140625 L 475.382812 350.164062 L 475.300781 350.347656 L 475.277344 350.398438 C 475.214844 350.542969 475.148438 350.683594 475.085938 350.828125 C 474.941406 351.148438 474.796875 351.472656 474.648438 351.789062 C 474.648438 351.792969 474.648438 351.792969 474.648438 351.792969 C 472.332031 356.910156 469.8125 361.992188 467.148438 366.921875 C 466.871094 367.449219 466.574219 367.984375 466.28125 368.511719 C 466.277344 368.519531 466.277344 368.527344 466.269531 368.535156 L 460.332031 368.535156 L 460.332031 370.152344 L 465.371094 370.152344 C 464.269531 372.136719 463.128906 374.109375 461.957031 376.070312 C 461.421875 376.964844 460.882812 377.859375 460.332031 378.75 C 459.914062 379.433594 459.492188 380.121094 459.066406 380.800781 C 458.488281 381.71875 457.96875 382.539062 457.460938 383.328125 C 457.101562 383.886719 456.730469 384.453125 456.359375 385.023438 C 456.007812 385.554688 455.65625 386.085938 455.300781 386.621094 C 455.238281 386.710938 455.179688 386.800781 455.113281 386.890625 C 454.757812 387.433594 454.390625 387.972656 454.019531 388.515625 L 454.023438 388.515625 C 454.023438 388.515625 454.019531 388.519531 454.019531 388.519531 C 450.734375 393.355469 447.238281 398.117188 443.597656 402.722656 L 443.597656 368.53125 L 441.972656 368.53125 L 441.972656 410.144531 C 442.515625 409.496094 443.058594 408.839844 443.597656 408.179688 C 443.953125 407.75 444.304688 407.3125 444.65625 406.878906 C 445.089844 406.339844 445.523438 405.796875 445.957031 405.253906 C 450.238281 399.851562 454.308594 394.269531 458.140625 388.519531 C 458.503906 387.980469 458.863281 387.4375 459.21875 386.894531 C 459.59375 386.324219 459.964844 385.746094 460.332031 385.171875 C 460.882812 384.324219 461.425781 383.476562 461.957031 382.617188 C 464.515625 378.539062 466.957031 374.386719 469.277344 370.152344 C 469.574219 369.617188 469.871094 369.078125 470.164062 368.535156 C 473.109375 363.074219 475.859375 357.492188 478.402344 351.792969 C 478.5 351.574219 478.601562 351.347656 478.699219 351.128906 C 478.792969 350.921875 478.882812 350.710938 478.976562 350.5 C 479.023438 350.386719 479.070312 350.277344 479.121094 350.164062 C 479.527344 349.246094 479.929688 348.3125 480.324219 347.378906 C 482.261719 342.804688 484.066406 338.148438 485.734375 333.433594 C 485.925781 332.894531 486.117188 332.351562 486.304688 331.808594 C 488.203125 326.316406 489.921875 320.734375 491.441406 315.074219 C 491.589844 314.53125 491.734375 313.992188 491.878906 313.449219 C 493.3125 307.945312 494.570312 302.363281 495.636719 296.714844 C 495.636719 296.714844 495.636719 296.714844 495.636719 296.710938 C 495.742188 296.167969 495.847656 295.632812 495.9375 295.085938 C 496.34375 292.886719 496.71875 290.671875 497.058594 288.449219 L 497.058594 288.441406 L 497.058594 288.445312 C 497.574219 285.101562 498.023438 281.738281 498.40625 278.351562 C 498.425781 278.171875 498.445312 277.984375 498.464844 277.804688 C 498.507812 277.445312 498.550781 277.085938 498.585938 276.726562 C 498.621094 276.410156 498.648438 276.105469 498.683594 275.785156 C 499.214844 270.566406 499.59375 265.296875 499.796875 259.988281 C 499.824219 259.449219 499.84375 258.90625 499.863281 258.363281 C 499.949219 255.585938 500 252.796875 500 250 C 500 247.199219 499.949219 244.414062 499.863281 241.636719 C 499.863281 241.632812 499.863281 241.632812 499.863281 241.632812 C 499.84375 241.089844 499.824219 240.546875 499.796875 240.003906 C 499.59375 234.695312 499.214844 229.425781 498.683594 224.207031 C 498.648438 223.894531 498.621094 223.582031 498.585938 223.269531 C 498.585938 223.269531 498.585938 223.269531 498.585938 223.265625 C 498.550781 222.910156 498.507812 222.550781 498.464844 222.191406 C 498.445312 222.011719 498.425781 221.828125 498.40625 221.644531 C 498.023438 218.253906 497.578125 214.890625 497.058594 211.546875 L 497.058594 211.550781 C 496.71875 209.328125 496.34375 207.109375 495.941406 204.910156 C 495.941406 204.910156 495.941406 204.910156 495.941406 204.90625 L 495.945312 204.90625 C 495.847656 204.363281 495.746094 203.828125 495.640625 203.285156 C 494.570312 197.636719 493.320312 192.054688 491.878906 186.550781 C 491.734375 186.007812 491.585938 185.464844 491.441406 184.925781 C 489.921875 179.261719 488.203125 173.683594 486.304688 168.191406 C 486.117188 167.648438 485.925781 167.105469 485.734375 166.566406 C 484.066406 161.851562 482.261719 157.195312 480.324219 152.621094 C 479.929688 151.6875 479.527344 150.753906 479.121094 149.832031 C 479.121094 149.832031 479.121094 149.828125 479.121094 149.828125 C 478.976562 149.511719 478.84375 149.1875 478.699219 148.867188 C 478.601562 148.648438 478.5 148.421875 478.402344 148.203125 L 478.398438 148.203125 C 475.859375 142.507812 473.109375 136.925781 470.164062 131.464844 C 469.871094 130.921875 469.574219 130.382812 469.277344 129.847656 C 466.957031 125.613281 464.515625 121.460938 461.957031 117.382812 C 461.425781 116.527344 460.882812 115.675781 460.332031 114.828125 C 459.964844 114.253906 459.59375 113.675781 459.21875 113.105469 C 458.867188 112.566406 458.503906 112.023438 458.148438 111.480469 C 454.3125 105.734375 450.246094 100.148438 445.957031 94.746094 C 445.523438 94.203125 445.097656 93.664062 444.65625 93.121094 C 444.304688 92.6875 443.953125 92.246094 443.597656 91.816406 C 443.058594 91.160156 442.515625 90.503906 441.972656 89.851562 C 438.101562 85.21875 434.070312 80.726562 429.875 76.386719 C 429.355469 75.84375 428.828125 75.300781 428.296875 74.761719 C 427.289062 73.734375 426.265625 72.714844 425.238281 71.703125 C 424.699219 71.171875 424.15625 70.644531 423.613281 70.121094 C 419.277344 65.929688 414.78125 61.894531 410.148438 58.027344 C 409.496094 57.484375 408.839844 56.941406 408.183594 56.402344 C 407.75 56.046875 407.3125 55.695312 406.878906 55.34375 C 406.335938 54.902344 405.796875 54.476562 405.253906 54.042969 C 399.851562 49.753906 394.265625 45.6875 388.519531 41.855469 C 387.976562 41.496094 387.4375 41.136719 386.894531 40.78125 C 386.324219 40.40625 385.746094 40.035156 385.171875 39.664062 C 384.324219 39.117188 383.476562 38.574219 382.617188 38.042969 C 378.539062 35.484375 374.386719 33.042969 370.152344 30.71875 C 369.613281 30.417969 369.078125 30.128906 368.535156 29.835938 C 363.074219 26.890625 357.492188 24.140625 351.796875 21.597656 C 351.574219 21.496094 351.351562 21.398438 351.132812 21.300781 C 350.8125 21.15625 350.488281 21.019531 350.171875 20.878906 L 350.167969 20.878906 C 349.246094 20.472656 348.3125 20.074219 347.382812 19.675781 C 342.804688 17.738281 338.148438 15.933594 333.433594 14.265625 C 332.894531 14.074219 332.351562 13.882812 331.808594 13.695312 C 326.316406 11.796875 320.738281 10.078125 315.074219 8.558594 C 314.535156 8.414062 313.992188 8.265625 313.449219 8.121094 C 307.945312 6.683594 302.363281 5.429688 296.714844 4.363281 C 296.175781 4.257812 295.632812 4.15625 295.089844 4.054688 C 292.890625 3.65625 290.671875 3.28125 288.449219 2.941406 C 288.445312 2.941406 288.441406 2.941406 288.4375 2.941406 L 288.449219 2.941406 C 288.351562 2.925781 288.25 2.910156 288.148438 2.898438 C 287.414062 2.78125 286.675781 2.671875 285.941406 2.5625 C 285.28125 2.46875 284.621094 2.378906 283.96875 2.289062 C 283.960938 2.289062 283.945312 2.285156 283.9375 2.285156 C 283.890625 2.277344 283.855469 2.273438 283.808594 2.265625 C 283.726562 2.253906 283.640625 2.246094 283.558594 2.234375 C 283.402344 2.214844 283.25 2.195312 283.097656 2.175781 C 282.78125 2.136719 282.46875 2.09375 282.152344 2.054688 C 281.519531 1.96875 280.890625 1.894531 280.261719 1.816406 C 279.804688 1.761719 279.347656 1.710938 278.894531 1.660156 C 278.714844 1.640625 278.535156 1.613281 278.355469 1.59375 C 278.105469 1.5625 277.855469 1.539062 277.605469 1.511719 C 277.316406 1.480469 277.023438 1.445312 276.730469 1.414062 C 276.417969 1.378906 276.105469 1.347656 275.792969 1.316406 L 275.78125 1.316406 C 270.566406 0.785156 265.300781 0.40625 259.996094 0.203125 L 259.996094 0.199219 C 259.453125 0.171875 258.910156 0.15625 258.367188 0.136719 C 258.363281 0.136719 258.363281 0.136719 258.363281 0.136719 C 255.589844 0.0507812 252.800781 0 250 0 C 247.199219 0 244.414062 0.0507812 241.636719 0.136719 C 241.09375 0.15625 240.550781 0.171875 240.011719 0.199219 L 240.011719 0.203125 C 234.707031 0.40625 229.4375 0.785156 224.222656 1.316406 L 224.214844 1.316406 C 223.898438 1.347656 223.589844 1.378906 223.273438 1.414062 C 223.273438 1.414062 223.269531 1.414062 223.269531 1.414062 C 223.179688 1.421875 223.085938 1.433594 222.992188 1.445312 C 222.804688 1.464844 222.613281 1.484375 222.429688 1.503906 C 222.300781 1.519531 222.171875 1.535156 222.042969 1.550781 C 221.910156 1.566406 221.78125 1.578125 221.648438 1.59375 C 221.5 1.609375 221.351562 1.632812 221.199219 1.648438 C 221.042969 1.664062 220.890625 1.683594 220.734375 1.703125 C 220.425781 1.734375 220.125 1.765625 219.824219 1.804688 C 219.214844 1.878906 218.605469 1.953125 218 2.03125 C 217.714844 2.070312 217.433594 2.109375 217.148438 2.144531 C 216.742188 2.199219 216.339844 2.253906 215.933594 2.308594 C 215.683594 2.34375 215.429688 2.375 215.179688 2.410156 C 215.082031 2.421875 214.980469 2.4375 214.882812 2.449219 C 214.714844 2.46875 214.542969 2.496094 214.371094 2.519531 C 213.550781 2.640625 212.730469 2.761719 211.910156 2.890625 C 211.789062 2.90625 211.671875 2.921875 211.554688 2.941406 L 211.566406 2.941406 C 211.5625 2.941406 211.558594 2.941406 211.558594 2.941406 L 211.550781 2.941406 C 209.328125 3.28125 207.109375 3.65625 204.910156 4.0625 L 204.910156 4.058594 C 204.367188 4.152344 203.828125 4.257812 203.285156 4.359375 L 203.285156 4.363281 C 197.644531 5.429688 192.058594 6.683594 186.550781 8.121094 C 186.007812 8.265625 185.46875 8.40625 184.925781 8.554688 L 184.925781 8.558594 C 179.265625 10.078125 173.683594 11.796875 168.191406 13.695312 C 167.648438 13.882812 167.101562 14.074219 166.566406 14.265625 C 161.851562 15.933594 157.195312 17.738281 152.617188 19.675781 C 151.6875 20.074219 150.753906 20.472656 149.832031 20.878906 C 149.511719 21.023438 149.1875 21.160156 148.871094 21.300781 C 148.648438 21.402344 148.425781 21.5 148.207031 21.597656 C 142.507812 24.140625 136.925781 26.890625 131.464844 29.84375 C 130.921875 30.128906 130.386719 30.425781 129.847656 30.71875 C 125.613281 33.042969 121.460938 35.484375 117.382812 38.042969 C 116.53125 38.574219 115.675781 39.117188 114.828125 39.664062 C 114.253906 40.035156 113.675781 40.40625 113.105469 40.78125 C 112.5625 41.136719 112.019531 41.496094 111.480469 41.855469 C 105.730469 45.695312 100.148438 49.761719 94.746094 54.042969 C 94.203125 54.476562 93.660156 54.910156 93.121094 55.34375 C 92.6875 55.695312 92.25 56.046875 91.820312 56.402344 C 91.160156 56.941406 90.503906 57.484375 89.855469 58.027344 C 85.21875 61.894531 80.726562 65.929688 76.386719 70.121094 C 75.84375 70.644531 75.300781 71.171875 74.761719 71.703125 L 74.761719 149.832031 L 76.386719 149.832031" fill="inherit"/><path d="M 129.847656 331.808594 L 129.847656 351.789062 L 148.207031 351.789062 L 148.207031 388.515625 L 186.550781 388.515625 L 186.550781 370.152344 L 204.910156 370.152344 L 204.910156 333.429688 L 241.636719 333.429688 L 241.636719 296.710938 L 259.996094 296.710938 L 259.996094 295.085938 L 240.011719 295.085938 L 240.011719 313.449219 L 204.910156 313.449219 L 204.910156 278.351562 L 221.652344 278.351562 L 221.652344 296.710938 L 223.269531 296.710938 L 223.269531 278.351562 L 259.996094 278.351562 L 259.996094 258.363281 L 240.011719 258.363281 L 240.011719 259.988281 L 258.367188 259.988281 L 258.367188 276.726562 L 223.269531 276.726562 L 223.269531 240.003906 L 221.652344 240.003906 L 221.652344 276.726562 L 203.285156 276.726562 L 203.285156 315.070312 L 240.011719 315.070312 L 240.011719 331.808594 L 166.566406 331.808594 L 166.566406 333.429688 L 203.285156 333.429688 L 203.285156 368.53125 L 166.566406 368.53125 L 166.566406 370.152344 L 184.925781 370.152344 L 184.925781 386.890625 L 149.832031 386.890625 L 149.832031 351.789062 L 186.550781 351.789062 L 186.550781 350.164062 L 131.46875 350.164062 L 131.46875 333.429688 L 149.832031 333.429688 L 149.832031 315.070312 L 186.550781 315.070312 L 186.550781 313.449219 L 149.832031 313.449219 L 149.832031 295.085938 L 148.207031 295.085938 L 148.207031 331.808594 L 129.847656 331.808594" fill="inherit"/><path d="M 258.363281 499.863281 C 258.90625 499.839844 259.449219 499.824219 259.996094 499.796875 C 265.304688 499.59375 270.570312 499.214844 275.789062 498.683594 C 276.105469 498.648438 276.417969 498.625 276.730469 498.582031 C 276.910156 498.566406 277.09375 498.542969 277.273438 498.523438 C 277.359375 498.519531 277.453125 498.507812 277.542969 498.496094 C 277.816406 498.460938 278.085938 498.4375 278.355469 498.402344 C 280.046875 498.210938 281.734375 498.007812 283.414062 497.78125 C 285.101562 497.5625 286.773438 497.320312 288.449219 497.058594 C 290.671875 496.71875 292.890625 496.34375 295.089844 495.945312 C 295.632812 495.84375 296.175781 495.742188 296.714844 495.636719 C 302.363281 494.570312 307.945312 493.316406 313.449219 491.875 C 313.992188 491.734375 314.535156 491.585938 315.074219 491.441406 C 320.738281 489.921875 326.316406 488.207031 331.808594 486.304688 C 332.351562 486.117188 332.894531 485.925781 333.433594 485.734375 C 338.148438 484.066406 342.804688 482.261719 347.382812 480.324219 C 348.3125 479.929688 349.246094 479.527344 350.167969 479.121094 C 350.488281 478.976562 350.8125 478.839844 351.128906 478.699219 C 351.347656 478.597656 351.574219 478.5 351.792969 478.402344 C 357.492188 475.859375 363.074219 473.109375 368.535156 470.164062 C 369.078125 469.871094 369.613281 469.574219 370.152344 469.28125 C 374.386719 466.957031 378.539062 464.515625 382.617188 461.957031 C 383.476562 461.425781 384.324219 460.882812 385.171875 460.332031 C 385.746094 459.964844 386.324219 459.59375 386.894531 459.21875 C 387.4375 458.863281 387.976562 458.503906 388.519531 458.144531 C 394.265625 454.304688 399.851562 450.246094 405.253906 445.957031 C 405.796875 445.523438 406.335938 445.089844 406.878906 444.65625 C 407.3125 444.304688 407.746094 443.957031 408.179688 443.597656 C 408.839844 443.058594 409.496094 442.515625 410.148438 441.972656 C 414.78125 438.105469 419.277344 434.070312 423.613281 429.875 C 424.15625 429.347656 424.699219 428.824219 425.238281 428.292969 L 425.238281 351.789062 L 443.597656 351.789062 L 443.597656 331.808594 L 441.972656 331.808594 L 441.972656 350.164062 L 423.613281 350.164062 L 423.613281 368.53125 L 405.253906 368.53125 L 405.253906 370.152344 L 423.613281 370.152344 L 423.613281 405.25 L 386.894531 405.25 L 386.894531 423.609375 L 368.535156 423.609375 L 368.535156 443.59375 L 370.152344 443.59375 L 370.152344 425.234375 L 388.519531 425.234375 L 388.519531 406.875 L 423.613281 406.875 L 423.613281 425.09375 L 423.472656 425.238281 C 423.257812 425.445312 423.046875 425.65625 422.835938 425.863281 C 422.269531 426.421875 421.6875 426.984375 421.238281 427.417969 C 417 431.511719 412.53125 435.53125 407.960938 439.351562 C 407.632812 439.625 407.265625 439.925781 406.878906 440.242188 L 406.878906 423.609375 L 405.253906 423.609375 L 405.253906 441.574219 C 405.089844 441.710938 404.925781 441.839844 404.765625 441.972656 C 404.753906 441.980469 404.75 441.988281 404.738281 441.996094 L 404.640625 442.070312 C 404.140625 442.472656 403.636719 442.878906 403.128906 443.28125 C 402.992188 443.382812 402.859375 443.492188 402.722656 443.597656 C 398.15625 447.210938 393.386719 450.707031 388.519531 454.019531 L 388.519531 441.972656 L 386.894531 441.972656 L 386.894531 455.117188 C 386.800781 455.179688 386.707031 455.246094 386.613281 455.304688 C 386.082031 455.664062 385.554688 456.007812 385.011719 456.363281 C 384.488281 456.707031 383.941406 457.066406 383.320312 457.460938 C 382.507812 457.984375 381.664062 458.523438 380.800781 459.066406 C 380.128906 459.488281 379.441406 459.910156 378.753906 460.332031 C 377.863281 460.875 376.964844 461.417969 376.0625 461.957031 C 374.117188 463.121094 372.140625 464.261719 370.152344 465.371094 L 370.152344 460.332031 L 351.792969 460.332031 L 351.792969 443.59375 L 351.796875 443.59375 L 351.796875 441.972656 L 351.792969 441.972656 L 351.792969 425.234375 L 351.796875 425.234375 L 351.796875 423.609375 L 351.792969 423.609375 L 351.792969 406.875 L 370.152344 406.875 L 370.152344 388.515625 L 406.878906 388.515625 L 406.878906 386.890625 L 388.519531 386.890625 L 388.519531 351.789062 L 406.878906 351.789062 L 406.878906 331.808594 L 405.253906 331.808594 L 405.253906 350.164062 L 368.535156 350.164062 L 368.535156 370.152344 L 370.152344 370.152344 L 370.152344 351.789062 L 386.894531 351.789062 L 386.894531 386.890625 L 368.535156 386.890625 L 368.535156 405.25 L 331.808594 405.25 L 331.808594 406.875 L 350.167969 406.875 L 350.167969 423.609375 L 278.355469 423.609375 L 278.355469 388.515625 L 296.714844 388.515625 L 296.714844 370.152344 L 313.449219 370.152344 L 313.449219 405.25 L 295.089844 405.25 L 295.089844 406.875 L 315.074219 406.875 L 315.074219 388.515625 L 351.796875 388.515625 L 351.796875 386.890625 L 315.074219 386.890625 L 315.074219 350.164062 L 313.449219 350.164062 L 313.449219 368.53125 L 295.089844 368.53125 L 295.089844 386.890625 L 258.367188 386.890625 L 258.367188 388.515625 L 276.730469 388.515625 L 276.730469 460.332031 L 241.636719 460.332031 L 241.636719 423.609375 L 223.269531 423.609375 L 223.269531 406.875 L 258.367188 406.875 L 258.367188 443.59375 L 259.996094 443.59375 L 259.996094 405.25 L 221.652344 405.25 L 221.652344 425.234375 L 240.011719 425.234375 L 240.011719 461.957031 L 278.355469 461.957031 L 278.355469 425.234375 L 350.167969 425.234375 L 350.167969 461.957031 L 368.535156 461.957031 L 368.535156 466.273438 C 368.527344 466.273438 368.527344 466.277344 368.523438 466.277344 L 368.058594 466.53125 C 367.679688 466.738281 367.300781 466.945312 366.910156 467.15625 C 361.992188 469.8125 356.910156 472.332031 351.792969 474.648438 C 351.332031 474.863281 350.867188 475.070312 350.398438 475.277344 L 350.167969 475.382812 L 350.140625 475.394531 C 350.003906 475.457031 349.859375 475.519531 349.726562 475.582031 C 349.511719 475.679688 349.296875 475.773438 349.082031 475.867188 L 348.796875 475.992188 C 347.886719 476.386719 346.964844 476.789062 346.046875 477.171875 C 344.824219 477.6875 343.589844 478.199219 342.351562 478.699219 C 340.980469 479.253906 339.601562 479.796875 338.230469 480.324219 C 336.628906 480.9375 335.03125 481.53125 333.433594 482.105469 L 333.433594 460.332031 L 331.808594 460.332031 L 331.808594 478.699219 L 296.714844 478.699219 L 296.714844 443.59375 L 313.449219 443.59375 L 313.449219 461.957031 L 315.074219 461.957031 L 315.074219 443.59375 L 333.433594 443.59375 L 333.433594 441.972656 L 295.089844 441.972656 L 295.089844 480.324219 L 331.808594 480.324219 L 331.808594 482.683594 L 330.6875 483.078125 C 325.546875 484.855469 320.292969 486.480469 315.074219 487.898438 C 314.78125 487.980469 314.488281 488.0625 314.195312 488.140625 L 313.746094 488.257812 C 313.648438 488.285156 313.546875 488.316406 313.449219 488.335938 C 313.164062 488.417969 312.871094 488.496094 312.582031 488.566406 C 307.347656 489.9375 302.011719 491.140625 296.714844 492.15625 C 296.5 492.199219 296.292969 492.246094 296.078125 492.28125 C 295.746094 492.34375 295.417969 492.402344 295.089844 492.464844 C 294.886719 492.5 294.683594 492.539062 294.476562 492.582031 C 292.289062 492.972656 290.089844 493.347656 287.925781 493.675781 C 284.785156 494.164062 281.570312 494.597656 278.355469 494.960938 L 278.355469 478.699219 L 259.996094 478.699219 L 259.996094 478.695312 L 258.367188 478.695312 L 258.367188 478.699219 L 241.636719 478.699219 L 241.636719 478.695312 L 240.011719 478.695312 L 240.011719 478.699219 L 223.269531 478.699219 L 223.269531 441.972656 L 221.652344 441.972656 L 221.652344 460.332031 L 168.191406 460.332031 L 168.191406 443.59375 L 204.910156 443.59375 L 204.910156 441.972656 L 149.832031 441.972656 L 149.832031 423.609375 L 148.207031 423.609375 L 148.207031 441.972656 L 129.847656 441.972656 L 129.847656 443.59375 L 166.566406 443.59375 L 166.566406 461.957031 L 221.652344 461.957031 L 221.652344 478.699219 L 221.648438 478.699219 L 221.648438 480.324219 L 276.730469 480.324219 L 276.730469 495.148438 C 276.621094 495.160156 276.503906 495.167969 276.390625 495.179688 L 276.355469 495.1875 L 276.324219 495.1875 C 276.03125 495.226562 275.746094 495.25 275.457031 495.28125 L 275.441406 495.28125 C 270.308594 495.804688 265.109375 496.179688 259.996094 496.375 C 259.953125 496.375 259.90625 496.378906 259.863281 496.378906 L 259.84375 496.378906 C 259.351562 496.402344 258.859375 496.417969 258.367188 496.4375 C 258.363281 496.4375 258.363281 496.4375 258.363281 496.4375 C 258.324219 496.441406 258.292969 496.441406 258.253906 496.441406 C 255.558594 496.53125 252.78125 496.582031 250 496.582031 C 247.21875 496.582031 244.441406 496.53125 241.738281 496.441406 C 241.707031 496.441406 241.667969 496.441406 241.636719 496.4375 C 241.148438 496.417969 240.652344 496.402344 240.160156 496.378906 L 240.144531 496.378906 C 240.101562 496.378906 240.054688 496.375 240.011719 496.375 C 234.890625 496.179688 229.691406 495.804688 224.558594 495.28125 L 224.542969 495.28125 C 224.253906 495.25 223.96875 495.226562 223.675781 495.1875 L 223.644531 495.1875 L 223.617188 495.179688 C 223.496094 495.167969 223.378906 495.160156 223.269531 495.144531 L 223.269531 495.140625 C 222.835938 495.097656 222.4375 495.050781 222.058594 495.007812 L 222.039062 495.007812 L 222.03125 495 C 221.902344 494.988281 221.777344 494.976562 221.652344 494.957031 L 221.652344 494.960938 C 221.652344 494.960938 221.652344 494.960938 221.648438 494.960938 C 218.433594 494.597656 215.21875 494.164062 212.074219 493.675781 C 209.882812 493.34375 207.683594 492.96875 205.53125 492.582031 L 205.515625 492.574219 L 205.503906 492.574219 C 205.304688 492.535156 205.105469 492.5 204.910156 492.464844 L 204.910156 478.699219 L 184.925781 478.699219 L 184.925781 480.324219 L 203.285156 480.324219 L 203.285156 492.15625 C 197.984375 491.140625 192.648438 489.933594 187.40625 488.566406 C 187.128906 488.496094 186.84375 488.417969 186.550781 488.34375 C 186.308594 488.277344 186.0625 488.210938 185.816406 488.144531 C 185.519531 488.0625 185.222656 487.984375 184.925781 487.902344 C 179.695312 486.476562 174.441406 484.851562 169.316406 483.078125 C 168.9375 482.945312 168.5625 482.816406 168.191406 482.683594 C 168.027344 482.628906 167.867188 482.574219 167.707031 482.511719 C 167.328125 482.375 166.945312 482.242188 166.566406 482.101562 C 164.96875 481.53125 163.367188 480.933594 161.769531 480.324219 L 168.191406 480.324219 L 168.191406 478.699219 L 157.644531 478.699219 C 156.40625 478.199219 155.171875 477.6875 153.945312 477.171875 C 153.03125 476.78125 152.109375 476.386719 151.210938 475.992188 L 150.910156 475.859375 C 150.703125 475.765625 150.488281 475.671875 150.273438 475.582031 C 150.132812 475.515625 149.988281 475.457031 149.847656 475.386719 L 149.832031 475.382812 L 149.832031 460.332031 L 129.847656 460.332031 L 129.847656 461.957031 L 148.207031 461.957031 L 148.207031 474.648438 C 143.078125 472.324219 138.003906 469.804688 133.097656 467.15625 L 133.078125 467.144531 L 133.0625 467.140625 C 132.546875 466.863281 132.007812 466.566406 131.488281 466.28125 C 131.480469 466.277344 131.472656 466.277344 131.464844 466.273438 C 130.929688 465.976562 130.386719 465.671875 129.847656 465.371094 C 127.859375 464.261719 125.890625 463.121094 123.933594 461.957031 C 123.035156 461.417969 122.140625 460.882812 121.257812 460.332031 C 120.566406 459.914062 119.886719 459.492188 119.203125 459.066406 C 118.511719 458.632812 117.597656 458.054688 116.675781 457.460938 C 116.058594 457.0625 115.511719 456.707031 114.976562 456.359375 C 114.355469 455.953125 113.859375 455.617188 113.394531 455.304688 L 113.386719 455.300781 L 113.382812 455.292969 C 113.285156 455.234375 113.199219 455.171875 113.105469 455.109375 C 112.5625 454.75 112.023438 454.382812 111.480469 454.019531 C 106.652344 450.734375 101.882812 447.238281 97.28125 443.597656 L 113.105469 443.597656 L 113.105469 441.972656 L 95.238281 441.972656 C 95.070312 441.835938 94.90625 441.707031 94.746094 441.578125 C 94.480469 441.359375 94.234375 441.160156 94 440.964844 L 93.988281 440.953125 L 93.984375 440.945312 C 93.691406 440.710938 93.402344 440.476562 93.121094 440.238281 C 92.738281 439.929688 92.375 439.625 92.046875 439.351562 C 87.480469 435.535156 83.011719 431.523438 78.757812 427.410156 C 78.3125 426.984375 77.730469 426.421875 77.15625 425.851562 C 76.945312 425.648438 76.742188 425.445312 76.535156 425.238281 L 131.464844 425.238281 L 131.464844 425.234375 L 131.46875 425.234375 L 131.46875 406.875 L 166.566406 406.875 L 166.566406 425.234375 L 168.191406 425.234375 L 168.191406 405.25 L 131.46875 405.25 L 131.46875 368.53125 L 56.402344 368.53125 L 56.402344 370.152344 L 74.761719 370.152344 L 74.761719 388.515625 L 93.121094 388.515625 L 93.121094 406.875 L 113.105469 406.875 L 113.105469 386.890625 L 111.480469 386.890625 L 111.480469 405.25 L 94.746094 405.25 L 94.746094 386.890625 L 76.386719 386.890625 L 76.386719 370.152344 L 129.847656 370.152344 L 129.847656 423.613281 L 113.105469 423.613281 L 113.105469 423.609375 L 111.480469 423.609375 L 111.480469 423.613281 L 76.386719 423.613281 L 76.386719 405.253906 L 74.761719 405.253906 L 74.761719 423.464844 C 74.554688 423.257812 74.351562 423.042969 74.140625 422.835938 C 73.691406 422.382812 73.214844 421.894531 72.582031 421.238281 C 68.480469 416.988281 64.464844 412.519531 60.652344 407.960938 C 60.375 407.628906 60.074219 407.257812 59.761719 406.878906 C 59.527344 406.597656 59.289062 406.308594 59.050781 406.023438 L 59.046875 406.011719 L 59.035156 406 C 58.835938 405.753906 58.632812 405.507812 58.425781 405.253906 C 58.296875 405.089844 58.15625 404.921875 58.027344 404.761719 C 58.023438 404.753906 58.015625 404.742188 58.011719 404.738281 L 58.003906 404.726562 L 57.992188 404.714844 C 57.582031 404.210938 57.1875 403.710938 56.765625 403.179688 L 56.726562 403.128906 C 56.617188 402.992188 56.511719 402.855469 56.402344 402.71875 C 52.761719 398.117188 49.265625 393.347656 45.976562 388.519531 L 58.027344 388.519531 L 58.027344 386.894531 L 44.894531 386.894531 C 44.828125 386.800781 44.765625 386.714844 44.707031 386.621094 L 44.699219 386.613281 L 44.691406 386.601562 C 44.382812 386.140625 44.046875 385.636719 43.636719 385.011719 C 43.269531 384.453125 42.898438 383.886719 42.539062 383.320312 C 41.945312 382.398438 41.367188 381.488281 40.933594 380.796875 C 40.507812 380.117188 40.085938 379.433594 39.667969 378.75 L 39.667969 368.535156 L 38.042969 368.535156 L 38.042969 376.070312 C 36.878906 374.117188 35.738281 372.140625 34.628906 370.152344 C 34.328125 369.617188 34.03125 369.070312 33.734375 368.535156 C 33.726562 368.523438 33.722656 368.519531 33.71875 368.507812 C 33.421875 367.972656 33.136719 367.441406 32.84375 366.910156 C 30.1875 361.992188 27.667969 356.910156 25.351562 351.792969 L 39.667969 351.792969 L 39.667969 350.167969 L 24.617188 350.167969 L 24.605469 350.148438 C 24.546875 350.003906 24.480469 349.863281 24.417969 349.722656 C 24.328125 349.515625 24.230469 349.308594 24.140625 349.097656 L 24.007812 348.796875 C 23.613281 347.890625 23.21875 346.96875 22.828125 346.046875 C 22.3125 344.824219 21.800781 343.589844 21.300781 342.351562 L 21.300781 333.433594 L 56.402344 333.433594 L 56.402344 351.789062 L 113.105469 351.789062 L 113.105469 295.085938 L 111.480469 295.085938 L 111.480469 313.449219 L 93.121094 313.449219 L 93.121094 315.070312 L 111.480469 315.070312 L 111.480469 350.164062 L 58.027344 350.164062 L 58.027344 315.070312 L 74.761719 315.070312 L 74.761719 333.429688 L 94.746094 333.429688 L 94.746094 331.808594 L 76.386719 331.808594 L 76.386719 296.710938 L 94.746094 296.710938 L 94.746094 278.351562 L 129.847656 278.351562 L 129.847656 315.070312 L 131.46875 315.070312 L 131.46875 259.988281 L 184.925781 259.988281 L 184.925781 295.085938 L 168.191406 295.085938 L 168.191406 276.726562 L 148.207031 276.726562 L 148.207031 278.351562 L 166.566406 278.351562 L 166.566406 296.710938 L 186.550781 296.710938 L 186.550781 258.363281 L 131.46875 258.363281 L 131.46875 240.003906 L 129.847656 240.003906 L 129.847656 276.726562 L 93.121094 276.726562 L 93.121094 295.085938 L 74.761719 295.085938 L 74.761719 313.449219 L 56.402344 313.449219 L 56.402344 331.808594 L 21.300781 331.808594 L 21.300781 313.449219 L 19.675781 313.449219 L 19.675781 338.230469 C 19.0625 336.632812 18.46875 335.03125 17.898438 333.433594 C 17.757812 333.054688 17.625 332.671875 17.488281 332.292969 C 17.433594 332.132812 17.371094 331.96875 17.316406 331.808594 L 16.921875 330.691406 C 15.148438 325.5625 13.53125 320.316406 12.101562 315.074219 C 12.019531 314.773438 11.9375 314.476562 11.855469 314.175781 L 11.65625 313.449219 C 11.582031 313.160156 11.503906 312.875 11.433594 312.582031 C 10.066406 307.351562 8.859375 302.015625 7.847656 296.714844 L 21.300781 296.714844 L 21.300781 295.089844 L 7.535156 295.089844 C 7.5 294.890625 7.457031 294.695312 7.425781 294.496094 L 7.425781 294.484375 L 7.421875 294.476562 C 7.03125 292.316406 6.65625 290.117188 6.324219 287.925781 C 5.828125 284.722656 5.394531 281.503906 5.039062 278.355469 C 5.039062 278.355469 5.039062 278.351562 5.039062 278.351562 C 5.023438 278.226562 5.011719 278.101562 4.996094 277.972656 L 4.988281 277.957031 L 4.988281 277.941406 C 4.945312 277.574219 4.902344 277.179688 4.855469 276.726562 L 4.851562 276.726562 C 4.839844 276.617188 4.832031 276.503906 4.820312 276.390625 L 4.8125 276.351562 L 4.8125 276.320312 C 4.773438 276.03125 4.75 275.742188 4.71875 275.457031 L 4.71875 275.441406 C 4.195312 270.308594 3.820312 265.109375 3.625 259.988281 C 3.625 259.988281 3.621094 259.988281 3.621094 259.988281 L 56.402344 259.988281 L 56.402344 295.085938 L 39.667969 295.085938 L 39.667969 276.726562 L 19.675781 276.726562 L 19.675781 278.351562 L 38.042969 278.351562 L 38.042969 315.070312 L 39.667969 315.070312 L 39.667969 296.710938 L 58.027344 296.710938 L 58.027344 278.351562 L 76.386719 278.351562 L 76.386719 259.988281 L 113.105469 259.988281 L 113.105469 223.265625 L 148.207031 223.265625 L 148.207031 241.632812 L 203.285156 241.632812 L 203.285156 259.988281 L 204.910156 259.988281 L 204.910156 223.265625 L 241.636719 223.265625 L 241.636719 204.90625 L 259.996094 204.90625 L 259.996094 184.921875 L 258.367188 184.921875 L 258.367188 203.285156 L 240.011719 203.285156 L 240.011719 221.644531 L 223.269531 221.644531 L 223.269531 148.203125 L 204.910156 148.203125 L 204.910156 131.464844 L 223.269531 131.464844 L 223.269531 113.105469 L 240.011719 113.105469 L 240.011719 186.546875 L 241.636719 186.546875 L 241.636719 168.1875 L 276.730469 168.1875 L 276.730469 221.644531 L 258.367188 221.644531 L 258.367188 240.003906 L 240.011719 240.003906 L 240.011719 241.632812 L 276.730469 241.632812 L 276.730469 259.988281 L 295.089844 259.988281 L 295.089844 278.351562 L 296.714844 278.351562 L 296.714844 258.363281 L 278.355469 258.363281 L 278.355469 240.003906 L 259.996094 240.003906 L 259.996094 223.265625 L 296.714844 223.265625 L 296.714844 221.644531 L 278.355469 221.644531 L 278.355469 204.90625 L 313.449219 204.90625 L 313.449219 240.003906 L 295.089844 240.003906 L 295.089844 241.632812 L 313.449219 241.632812 L 313.449219 296.710938 L 333.433594 296.710938 L 333.433594 259.988281 L 351.796875 259.988281 L 351.796875 258.363281 L 331.808594 258.363281 L 331.808594 295.085938 L 315.074219 295.085938 L 315.074219 241.632812 L 386.894531 241.632812 L 386.894531 259.988281 L 388.519531 259.988281 L 388.519531 241.632812 L 441.972656 241.632812 L 441.972656 258.363281 L 423.613281 258.363281 L 423.613281 295.085938 L 406.878906 295.085938 L 406.878906 258.363281 L 405.253906 258.363281 L 405.253906 276.726562 L 370.152344 276.726562 L 370.152344 258.363281 L 368.535156 258.363281 L 368.535156 278.351562 L 405.253906 278.351562 L 405.253906 296.710938 L 425.238281 296.710938 L 425.238281 259.988281 L 443.597656 259.988281 L 443.597656 240.003906 L 370.152344 240.003906 L 370.152344 204.90625 L 405.253906 204.90625 L 405.253906 221.644531 L 386.894531 221.644531 L 386.894531 223.265625 L 406.878906 223.265625 L 406.878906 203.285156 L 351.796875 203.285156 L 351.796875 184.921875 L 350.171875 184.921875 L 350.171875 221.644531 L 333.433594 221.644531 L 333.433594 184.921875 L 296.714844 184.921875 L 296.714844 168.1875 L 368.535156 168.1875 L 368.535156 186.546875 L 370.152344 186.546875 L 370.152344 148.203125 L 368.535156 148.203125 L 368.535156 166.5625 L 296.714844 166.5625 L 296.714844 129.84375 L 295.089844 129.84375 L 295.089844 148.203125 L 259.996094 148.203125 L 259.996094 131.464844 L 278.355469 131.464844 L 278.355469 113.105469 L 313.449219 113.105469 L 313.449219 149.828125 L 315.074219 149.828125 L 315.074219 93.121094 L 313.449219 93.121094 L 313.449219 111.480469 L 276.730469 111.480469 L 276.730469 129.84375 L 258.367188 129.84375 L 258.367188 149.828125 L 295.089844 149.828125 L 295.089844 186.546875 L 331.808594 186.546875 L 331.808594 223.265625 L 351.796875 223.265625 L 351.796875 204.90625 L 368.535156 204.90625 L 368.535156 240.003906 L 315.074219 240.003906 L 315.074219 203.285156 L 278.355469 203.285156 L 278.355469 166.5625 L 241.636719 166.5625 L 241.636719 113.105469 L 259.996094 113.105469 L 259.996094 56.398438 L 258.367188 56.398438 L 258.367188 74.757812 L 240.011719 74.757812 L 240.011719 94.742188 L 241.636719 94.742188 L 241.636719 76.382812 L 258.367188 76.382812 L 258.367188 111.480469 L 221.652344 111.480469 L 221.652344 129.84375 L 203.285156 129.84375 L 203.285156 149.828125 L 221.652344 149.828125 L 221.652344 203.285156 L 168.191406 203.285156 L 168.191406 168.1875 L 203.285156 168.1875 L 203.285156 184.921875 L 184.925781 184.921875 L 184.925781 186.546875 L 204.910156 186.546875 L 204.910156 166.5625 L 166.566406 166.5625 L 166.566406 203.285156 L 148.207031 203.285156 L 148.207031 204.90625 L 221.652344 204.90625 L 221.652344 221.644531 L 203.285156 221.644531 L 203.285156 240.003906 L 149.832031 240.003906 L 149.832031 223.265625 L 186.550781 223.265625 L 186.550781 221.644531 L 131.46875 221.644531 L 131.46875 186.546875 L 149.832031 186.546875 L 149.832031 184.921875 L 129.847656 184.921875 L 129.847656 221.644531 L 111.480469 221.644531 L 111.480469 240.003906 L 93.121094 240.003906 L 93.121094 241.632812 L 111.480469 241.632812 L 111.480469 258.363281 L 76.386719 258.363281 L 76.386719 223.265625 L 94.746094 223.265625 L 94.746094 204.90625 L 113.105469 204.90625 L 113.105469 203.285156 L 93.121094 203.285156 L 93.121094 221.644531 L 74.761719 221.644531 L 74.761719 276.726562 L 58.027344 276.726562 L 58.027344 258.363281 L 21.300781 258.363281 L 21.300781 223.265625 L 39.667969 223.265625 L 39.667969 221.644531 L 19.675781 221.644531 L 19.675781 258.363281 L 3.5625 258.363281 C 3.554688 258.324219 3.554688 258.292969 3.554688 258.253906 C 3.46875 255.558594 3.417969 252.78125 3.417969 250 C 3.417969 247.210938 3.46875 244.441406 3.554688 241.738281 C 3.554688 241.707031 3.554688 241.667969 3.5625 241.636719 C 3.5625 241.632812 3.5625 241.632812 3.5625 241.632812 C 3.582031 241.140625 3.597656 240.648438 3.617188 240.15625 L 3.617188 240.132812 C 3.617188 240.089844 3.625 240.046875 3.625 240.003906 C 3.820312 234.882812 4.195312 229.6875 4.71875 224.542969 L 4.726562 224.503906 C 4.753906 224.230469 4.78125 223.957031 4.8125 223.683594 L 4.8125 223.648438 L 4.820312 223.609375 C 4.832031 223.496094 4.839844 223.378906 4.855469 223.269531 C 4.855469 223.269531 4.855469 223.269531 4.855469 223.265625 L 4.859375 223.265625 C 4.902344 222.828125 4.945312 222.429688 4.988281 222.050781 L 4.988281 222.039062 L 4.996094 222.023438 C 5.011719 221.894531 5.023438 221.769531 5.039062 221.644531 C 5.402344 218.421875 5.835938 215.207031 6.324219 212.066406 C 6.652344 209.914062 7.023438 207.710938 7.421875 205.523438 C 7.457031 205.320312 7.5 205.113281 7.535156 204.910156 L 56.402344 204.910156 L 56.402344 240.003906 L 38.042969 240.003906 L 38.042969 241.632812 L 58.027344 241.632812 L 58.027344 204.910156 L 76.386719 204.910156 L 76.386719 166.5625 L 74.761719 166.5625 L 74.761719 203.285156 L 39.667969 203.285156 L 39.667969 184.921875 L 38.042969 184.921875 L 38.042969 203.285156 L 21.300781 203.285156 L 21.300781 184.925781 L 19.675781 184.925781 L 19.675781 203.285156 L 7.84375 203.285156 C 8.863281 197.929688 10.078125 192.59375 11.433594 187.40625 C 11.511719 187.121094 11.582031 186.832031 11.664062 186.550781 C 11.683594 186.457031 11.707031 186.371094 11.734375 186.277344 L 11.855469 185.808594 C 11.933594 185.511719 12.015625 185.222656 12.097656 184.925781 C 13.519531 179.707031 15.144531 174.453125 16.921875 169.316406 C 17.054688 168.9375 17.183594 168.5625 17.316406 168.191406 C 17.371094 168.027344 17.433594 167.867188 17.488281 167.707031 C 17.625 167.328125 17.757812 166.945312 17.894531 166.566406 C 18.46875 164.96875 19.0625 163.367188 19.675781 161.769531 L 19.675781 168.191406 L 21.300781 168.191406 L 21.300781 157.648438 C 21.800781 156.40625 22.3125 155.175781 22.828125 153.949219 C 23.21875 153.03125 23.613281 152.109375 24.007812 151.207031 L 24.140625 150.902344 C 24.230469 150.691406 24.328125 150.484375 24.417969 150.277344 C 24.480469 150.136719 24.546875 149.996094 24.605469 149.851562 L 24.617188 149.832031 L 39.667969 149.832031 L 39.667969 148.207031 L 25.351562 148.207031 C 27.667969 143.089844 30.1875 138.015625 32.84375 133.097656 C 33.136719 132.558594 33.421875 132.027344 33.71875 131.488281 C 33.722656 131.480469 33.722656 131.472656 33.726562 131.464844 C 34.023438 130.921875 34.328125 130.382812 34.628906 129.847656 C 35.738281 127.859375 36.878906 125.882812 38.042969 123.929688 L 38.042969 131.464844 L 39.667969 131.464844 L 39.667969 121.25 C 40.085938 120.566406 40.507812 119.882812 40.933594 119.203125 C 41.367188 118.511719 41.945312 117.601562 42.539062 116.671875 C 42.898438 116.113281 43.269531 115.546875 43.636719 114.988281 L 43.839844 114.679688 C 44.125 114.246094 44.402344 113.820312 44.699219 113.378906 C 44.761719 113.289062 44.820312 113.199219 44.886719 113.105469 C 45.25 112.5625 45.609375 112.019531 45.984375 111.480469 C 49.292969 106.613281 52.789062 101.84375 56.402344 97.277344 L 56.402344 166.5625 L 38.042969 166.5625 L 38.042969 168.1875 L 56.402344 168.1875 L 56.402344 186.550781 L 58.027344 186.550781 L 58.027344 89.851562 C 57.484375 90.503906 56.941406 91.160156 56.402344 91.820312 C 56.042969 92.253906 55.695312 92.6875 55.34375 93.121094 C 54.910156 93.664062 54.476562 94.203125 54.042969 94.746094 C 49.753906 100.148438 45.695312 105.734375 41.855469 111.480469 C 41.496094 112.023438 41.136719 112.566406 40.78125 113.105469 C 40.40625 113.675781 40.035156 114.253906 39.667969 114.828125 C 39.117188 115.675781 38.574219 116.53125 38.042969 117.382812 C 35.484375 121.460938 33.042969 125.613281 30.71875 129.847656 C 30.421875 130.382812 30.128906 130.921875 29.835938 131.464844 C 26.890625 136.925781 24.140625 142.507812 21.597656 148.207031 C 21.5 148.425781 21.402344 148.652344 21.300781 148.871094 C 21.160156 149.1875 21.023438 149.511719 20.878906 149.832031 C 20.472656 150.753906 20.074219 151.6875 19.675781 152.621094 C 17.738281 157.195312 15.933594 161.851562 14.265625 166.566406 C 14.074219 167.105469 13.882812 167.648438 13.695312 168.191406 C 11.792969 173.683594 10.078125 179.261719 8.554688 184.925781 C 8.414062 185.464844 8.265625 186.007812 8.125 186.550781 C 6.679688 192.054688 5.429688 197.636719 4.359375 203.285156 C 4.253906 203.828125 4.15625 204.367188 4.054688 204.910156 C 3.65625 207.109375 3.28125 209.328125 2.941406 211.550781 C 2.925781 211.660156 2.910156 211.765625 2.894531 211.875 C 2.78125 212.601562 2.671875 213.328125 2.570312 214.058594 C 2.492188 214.566406 2.421875 215.070312 2.355469 215.582031 C 2.324219 215.800781 2.296875 216.027344 2.265625 216.25 C 2.21875 216.609375 2.171875 216.96875 2.125 217.332031 C 2.054688 217.871094 1.980469 218.414062 1.917969 218.957031 C 1.8125 219.78125 1.71875 220.605469 1.621094 221.433594 C 1.613281 221.503906 1.605469 221.574219 1.597656 221.644531 C 1.589844 221.695312 1.585938 221.746094 1.582031 221.796875 C 1.554688 222.019531 1.527344 222.238281 1.503906 222.457031 C 1.492188 222.546875 1.480469 222.640625 1.476562 222.726562 C 1.453125 222.90625 1.433594 223.089844 1.417969 223.269531 C 1.394531 223.421875 1.382812 223.582031 1.367188 223.742188 C 1.351562 223.894531 1.332031 224.050781 1.316406 224.207031 C 0.785156 229.429688 0.40625 234.699219 0.203125 240.003906 C 0.175781 240.546875 0.160156 241.09375 0.136719 241.636719 C 0.0507812 244.414062 0 247.199219 0 250 C 0 252.800781 0.0507812 255.585938 0.136719 258.363281 C 0.160156 258.910156 0.175781 259.453125 0.203125 259.988281 C 0.40625 265.296875 0.785156 270.566406 1.316406 275.785156 C 1.332031 275.945312 1.351562 276.105469 1.367188 276.257812 C 1.382812 276.410156 1.394531 276.570312 1.417969 276.730469 C 1.433594 276.914062 1.453125 277.101562 1.476562 277.289062 C 1.488281 277.371094 1.492188 277.460938 1.503906 277.542969 C 1.53125 277.796875 1.558594 278.042969 1.589844 278.292969 C 1.59375 278.3125 1.59375 278.332031 1.597656 278.351562 C 1.660156 278.929688 1.738281 279.503906 1.808594 280.078125 C 2.144531 282.878906 2.511719 285.664062 2.941406 288.441406 L 2.941406 288.449219 C 3.28125 290.671875 3.65625 292.890625 4.0625 295.089844 C 4.15625 295.632812 4.257812 296.171875 4.363281 296.714844 C 5.429688 302.363281 6.6875 307.945312 8.125 313.449219 C 8.265625 313.992188 8.410156 314.53125 8.554688 315.074219 C 10.078125 320.734375 11.792969 326.316406 13.695312 331.808594 C 13.882812 332.351562 14.074219 332.894531 14.265625 333.433594 C 15.933594 338.148438 17.738281 342.804688 19.675781 347.378906 C 20.074219 348.3125 20.472656 349.246094 20.878906 350.167969 C 21.023438 350.488281 21.160156 350.8125 21.300781 351.128906 C 21.402344 351.347656 21.5 351.574219 21.597656 351.792969 C 24.140625 357.492188 26.890625 363.074219 29.835938 368.535156 C 30.128906 369.078125 30.421875 369.617188 30.71875 370.152344 C 33.042969 374.386719 35.484375 378.539062 38.042969 382.617188 C 38.574219 383.46875 39.117188 384.324219 39.667969 385.171875 C 40.035156 385.746094 40.40625 386.324219 40.78125 386.894531 C 41.136719 387.4375 41.496094 387.980469 41.855469 388.519531 C 45.695312 394.269531 49.761719 399.851562 54.046875 405.253906 C 54.476562 405.796875 54.910156 406.339844 55.34375 406.878906 C 55.695312 407.3125 56.042969 407.746094 56.402344 408.171875 C 56.941406 408.839844 57.484375 409.492188 58.027344 410.144531 C 61.898438 414.78125 65.929688 419.273438 70.125 423.613281 C 70.652344 424.15625 71.175781 424.699219 71.707031 425.238281 C 72.714844 426.265625 73.734375 427.285156 74.761719 428.292969 C 75.300781 428.824219 75.84375 429.347656 76.386719 429.875 C 80.726562 434.070312 85.21875 438.105469 89.855469 441.972656 C 90.507812 442.515625 91.160156 443.058594 91.828125 443.597656 C 92.253906 443.957031 92.6875 444.304688 93.121094 444.65625 C 93.660156 445.089844 94.203125 445.523438 94.746094 445.953125 C 100.148438 450.238281 105.730469 454.304688 111.480469 458.144531 C 112.019531 458.503906 112.5625 458.863281 113.105469 459.21875 C 113.675781 459.59375 114.253906 459.964844 114.828125 460.332031 C 115.675781 460.882812 116.53125 461.425781 117.382812 461.957031 C 121.460938 464.515625 125.613281 466.957031 129.847656 469.28125 C 130.386719 469.574219 130.921875 469.871094 131.464844 470.15625 C 136.925781 473.109375 142.507812 475.859375 148.207031 478.402344 C 148.425781 478.5 148.648438 478.597656 148.871094 478.699219 C 149.1875 478.839844 149.511719 478.976562 149.832031 479.121094 C 150.753906 479.527344 151.6875 479.929688 152.617188 480.324219 C 157.195312 482.261719 161.851562 484.066406 166.566406 485.734375 C 167.101562 485.925781 167.648438 486.117188 168.191406 486.304688 C 173.683594 488.207031 179.265625 489.921875 184.925781 491.441406 C 185.46875 491.589844 186.007812 491.734375 186.550781 491.875 C 192.054688 493.316406 197.644531 494.570312 203.285156 495.636719 C 203.828125 495.742188 204.367188 495.84375 204.910156 495.9375 C 207.109375 496.34375 209.328125 496.71875 211.550781 497.058594 C 213.226562 497.320312 214.90625 497.5625 216.585938 497.78125 C 218.265625 498.007812 219.953125 498.210938 221.648438 498.402344 C 221.996094 498.445312 222.34375 498.484375 222.691406 498.519531 C 222.785156 498.527344 222.886719 498.539062 222.984375 498.550781 C 223.078125 498.5625 223.171875 498.574219 223.269531 498.582031 C 223.589844 498.625 223.894531 498.648438 224.214844 498.683594 C 229.433594 499.214844 234.703125 499.59375 240.011719 499.796875 C 240.550781 499.824219 241.09375 499.839844 241.636719 499.863281 C 244.410156 499.949219 247.199219 500 250 500 C 252.800781 500 255.589844 499.949219 258.363281 499.863281" fill="inherit"/></g></svg>